<svg xmlns="http://www.w3.org/2000/svg" viewBox="0 0 1400 280" fill="none">
  <!-- Pixel icon elements (top left decorative pixels) -->
  <rect x="10" y="10" width="20" height="20" fill="#5eead4"/>
  <rect x="35" y="10" width="25" height="25" fill="#2dd4bf"/>
  <rect x="65" y="5" width="30" height="30" fill="#14b8a6"/>

  <!-- "i" person icon (stylized developer figure with orbit) -->
  <circle cx="130" cy="80" r="30" fill="#5eead4"/>
  <path d="M 100 120 L 100 230 L 120 230 L 120 170 L 140 170 L 140 230 L 160 230 L 160 120 Z" fill="#14b8a6"/>
  <ellipse cx="130" cy="160" rx="90" ry="50" stroke="#2dd4bf" stroke-width="8" fill="none" opacity="0.5"/>

  <!-- "Develop Tech" text in stylized italic font -->
  <g fill="#14b8a6">
    <!-- D -->
    <path d="M 240 100 L 240 220 L 290 220 Q 340 220 340 160 Q 340 100 290 100 Z M 270 120 L 285 120 Q 310 120 310 160 Q 310 200 285 200 L 270 200 Z"/>

    <!-- e -->
    <path d="M 370 140 Q 420 135 420 165 Q 420 195 385 200 Q 350 205 350 175 Q 350 145 385 140 Q 400 138 410 145 L 395 160 Q 385 155 380 160 Q 375 165 375 175 Q 375 185 385 185 Q 395 185 395 175 Q 395 165 385 165 Z"/>

    <!-- v -->
    <path d="M 440 140 L 460 200 L 480 140 L 505 140 L 470 220 L 450 220 L 415 140 Z"/>

    <!-- e -->
    <path d="M 520 140 Q 570 135 570 165 Q 570 195 535 200 Q 500 205 500 175 Q 500 145 535 140 Q 550 138 560 145 L 545 160 Q 535 155 530 160 Q 525 165 525 175 Q 525 185 535 185 Q 545 185 545 175 Q 545 165 535 165 Z"/>

    <!-- l -->
    <path d="M 590 100 L 610 100 L 610 220 L 590 220 Z"/>

    <!-- o -->
    <path d="M 630 140 Q 680 135 680 170 Q 680 205 630 200 Q 580 195 580 160 Q 580 125 630 140 Z M 630 155 Q 610 160 610 170 Q 610 180 630 185 Q 650 180 650 170 Q 650 160 630 155 Z"/>

    <!-- p -->
    <path d="M 700 140 L 720 140 L 720 250 L 700 250 Z M 720 150 Q 750 145 760 165 Q 770 185 750 195 Q 730 205 720 190 Z"/>
  </g>

  <g fill="#2dd4bf">
    <!-- T -->
    <path d="M 810 100 L 930 100 L 930 120 L 880 120 L 880 220 L 860 220 L 860 120 L 810 120 Z"/>

    <!-- e -->
    <path d="M 950 140 Q 1000 135 1000 165 Q 1000 195 965 200 Q 930 205 930 175 Q 930 145 965 140 Q 980 138 990 145 L 975 160 Q 965 155 960 160 Q 955 165 955 175 Q 955 185 965 185 Q 975 185 975 175 Q 975 165 965 165 Z"/>

    <!-- c -->
    <path d="M 1020 140 Q 1060 135 1070 155 L 1050 165 Q 1045 155 1035 155 Q 1025 155 1025 170 Q 1025 185 1035 185 Q 1045 185 1050 175 L 1070 185 Q 1060 205 1020 200 Q 980 195 980 160 Q 980 125 1020 140 Z"/>

    <!-- h -->
    <path d="M 1090 100 L 1110 100 L 1110 220 L 1090 220 Z M 1110 150 Q 1140 145 1150 165 L 1150 220 L 1130 220 L 1130 170 Q 1130 155 1120 155 Z"/>
  </g>

  <!-- Tagline "I" in smaller text -->
  <text x="240" y="250" font-family="Arial, sans-serif" font-size="32" font-style="italic" fill="#5eead4">I</text>
</svg>
